<?xml version="1.0" encoding="UTF-8" standalone="no"?>
<!DOCTYPE svg PUBLIC "-//W3C//DTD SVG 1.1//EN" "http://www.w3.org/Graphics/SVG/1.1/DTD/svg11.dtd">
<svg width="100%" height="100%" viewBox="0 0 100 100" version="1.1" xmlns="http://www.w3.org/2000/svg" xmlns:xlink="http://www.w3.org/1999/xlink" xml:space="preserve" style="fill-rule:evenodd;clip-rule:evenodd;stroke-linejoin:round;stroke-miterlimit:1.41421;">
    <g transform="matrix(1.38199,0,0,1.38199,-21.5027,-18.3436)">
        <path d="M74.14,64.18L61.46,66.4C62.46,86.09 39.72,84.26 39.72,84.26C49.04,83.38 47.27,72.54 46.49,69.2L34.92,71.2L52.13,57.2L74.14,64.18Z" style="fill-rule:nonzero;"/>
    </g>
    <g transform="matrix(1.38199,0,0,1.38199,-21.5027,-18.3436)">
        <path d="M38.65,81.31C38.12,81.41 37.57,81.49 37.03,81.54C26.6,82.54 17.26,74.31 16.2,63.21C15.567,56.889 17.873,50.616 22.45,46.21C22.709,45.961 23.055,45.822 23.414,45.822C23.878,45.822 24.312,46.054 24.57,46.44C24.874,46.896 24.874,47.494 24.57,47.95C19.77,56.165 21.398,66.713 28.45,73.1C32.059,76.344 36.87,77.927 41.7,77.46C42.394,77.357 43.064,77.787 43.26,78.46C43.443,79.127 43.099,79.834 42.46,80.1C41.239,80.644 39.961,81.05 38.65,81.31Z" style="fill-rule:nonzero;"/>
    </g>
    <g transform="matrix(1.38199,0,0,1.38199,-21.5027,-18.3436)">
        <path d="M30.75,66.33L35,54.38C17.44,45.38 30.31,26.64 30.31,26.64C26.44,35.18 36.72,39 40,40L43.55,29L47.11,51.4L30.75,66.33Z" style="fill-rule:nonzero;"/>
    </g>
    <g transform="matrix(1.38199,0,0,1.38199,-21.5027,-18.3436)">
        <path d="M70.35,32.1C69.763,32.22 69.163,31.938 68.88,31.41C64.626,24.026 56.148,20.081 47.76,21.58C42.042,22.551 37.166,26.303 34.76,31.58C34.59,32.014 34.215,32.337 33.76,32.44C33.287,32.514 32.808,32.349 32.48,32C32.157,31.699 32,31.258 32.06,30.82C32.272,28.953 32.775,27.131 33.55,25.42C36.146,19.905 41.275,15.989 47.28,14.94C58.088,12.973 68.716,19.758 71.48,30.39C71.573,30.762 71.508,31.157 71.3,31.48C71.082,31.808 70.738,32.032 70.35,32.1Z" style="fill-rule:nonzero;"/>
    </g>
    <g transform="matrix(1.38199,0,0,1.38199,-21.5027,-18.3436)">
        <path d="M49.87,27.8L58.62,37.43C75.14,26.68 85,47.22 85,47.22C79.53,39.61 71.07,46.6 68.57,49L76.27,58.17L54.66,49.94L49.87,27.8Z" style="fill-rule:nonzero;"/>
    </g>
    <g transform="matrix(1.38199,0,0,1.38199,-21.5027,-18.3436)">
        <path d="M70.13,81.27C67.008,81.861 63.789,81.703 60.74,80.81C60.147,80.631 59.738,80.08 59.738,79.46C59.738,78.795 60.209,78.216 60.86,78.08C60.956,78.07 61.054,78.07 61.15,78.08C62.408,78.091 63.664,77.98 64.9,77.75C67.825,77.202 70.592,76.01 73,74.26C81.61,68.08 83.9,56.5 78.12,48.43C77.776,48.039 77.676,47.487 77.86,47C78.042,46.547 78.441,46.216 78.92,46.12C79.3,46.052 79.692,46.146 80,46.38C81.512,47.499 82.838,48.849 83.93,50.38C86.926,54.543 88.041,59.778 87,64.8C85.951,69.99 82.955,74.586 78.63,77.64C76.101,79.464 73.197,80.704 70.13,81.27Z" style="fill-rule:nonzero;"/>
    </g>
</svg>
